<?xml version="1.0" encoding="UTF-8" standalone="no"?>
<!DOCTYPE svg PUBLIC "-//W3C//DTD SVG 1.1//EN"
 "http://www.w3.org/Graphics/SVG/1.1/DTD/svg11.dtd">
<!-- Generated by graphviz version 2.47.3 (20210619.1520)
 -->
<!-- Title: dependencies Pages: 1 -->
<svg width="837pt" height="247pt"
 viewBox="0.00 0.00 837.00 246.80" xmlns="http://www.w3.org/2000/svg" xmlns:xlink="http://www.w3.org/1999/xlink">
<g id="graph0" class="graph" transform="scale(1 1) rotate(0) translate(4 242.8)">
<title>dependencies</title>
<polygon fill="white" stroke="transparent" points="-4,4 -4,-242.8 833,-242.8 833,4 -4,4"/>
<text text-anchor="middle" x="414.5" y="-8.2" font-family="sans-serif" font-size="14.00">dependencies</text>
<g id="clust1" class="cluster">
<title>cluster_CommentsModule</title>
<polygon fill="none" stroke="black" stroke-dasharray="1,5" points="8,-32.8 8,-230.8 821,-230.8 821,-32.8 8,-32.8"/>
</g>
<g id="clust2" class="cluster">
<title>cluster_CommentsModule_declarations</title>
<polygon fill="none" stroke="black" points="322,-40.8 322,-92.8 813,-92.8 813,-40.8 322,-40.8"/>
</g>
<g id="clust7" class="cluster">
<title>cluster_CommentsModule_exports</title>
<polygon fill="none" stroke="black" points="234,-170.8 234,-222.8 578,-222.8 578,-170.8 234,-170.8"/>
</g>
<g id="clust6" class="cluster">
<title>cluster_CommentsModule_imports</title>
<polygon fill="none" stroke="black" points="16,-40.8 16,-92.8 314,-92.8 314,-40.8 16,-40.8"/>
</g>
<!-- AddCommentComponent -->
<g id="node1" class="node">
<title>AddCommentComponent</title>
<polygon fill="#ffffb3" stroke="black" points="805.16,-84.8 644.84,-84.8 644.84,-48.8 805.16,-48.8 805.16,-84.8"/>
<text text-anchor="middle" x="725" y="-62.6" font-family="Times,serif" font-size="14.00">AddCommentComponent</text>
</g>
<!-- CommentsModule -->
<g id="node4" class="node">
<title>CommentsModule</title>
<polygon fill="#8dd3c7" stroke="black" points="461.22,-149.8 458.22,-153.8 437.22,-153.8 434.22,-149.8 340.78,-149.8 340.78,-113.8 461.22,-113.8 461.22,-149.8"/>
<text text-anchor="middle" x="401" y="-127.6" font-family="Times,serif" font-size="14.00">CommentsModule</text>
</g>
<!-- AddCommentComponent&#45;&gt;CommentsModule -->
<g id="edge1" class="edge">
<title>AddCommentComponent&#45;&gt;CommentsModule</title>
<path fill="none" stroke="black" d="M725,-85.08C725,-106.12 725,-137.8 725,-137.8 725,-137.8 471.18,-137.8 471.18,-137.8"/>
<polygon fill="black" stroke="black" points="471.18,-134.3 461.18,-137.8 471.18,-141.3 471.18,-134.3"/>
</g>
<!-- CommentComponent -->
<g id="node2" class="node">
<title>CommentComponent</title>
<polygon fill="#ffffb3" stroke="black" points="626.06,-84.8 489.94,-84.8 489.94,-48.8 626.06,-48.8 626.06,-84.8"/>
<text text-anchor="middle" x="558" y="-62.6" font-family="Times,serif" font-size="14.00">CommentComponent</text>
</g>
<!-- CommentComponent&#45;&gt;CommentsModule -->
<g id="edge2" class="edge">
<title>CommentComponent&#45;&gt;CommentsModule</title>
<path fill="none" stroke="black" d="M529.9,-84.82C529.9,-102.17 529.9,-125.8 529.9,-125.8 529.9,-125.8 471.3,-125.8 471.3,-125.8"/>
<polygon fill="black" stroke="black" points="471.3,-122.3 461.3,-125.8 471.3,-129.3 471.3,-122.3"/>
</g>
<!-- CommentsComponent -->
<g id="node3" class="node">
<title>CommentsComponent</title>
<polygon fill="#ffffb3" stroke="black" points="472,-84.8 330,-84.8 330,-48.8 472,-48.8 472,-84.8"/>
<text text-anchor="middle" x="401" y="-62.6" font-family="Times,serif" font-size="14.00">CommentsComponent</text>
</g>
<!-- CommentsComponent&#45;&gt;CommentsModule -->
<g id="edge3" class="edge">
<title>CommentsComponent&#45;&gt;CommentsModule</title>
<path fill="none" stroke="black" d="M401,-84.91C401,-84.91 401,-103.79 401,-103.79"/>
<polygon fill="black" stroke="black" points="397.5,-103.79 401,-113.79 404.5,-103.79 397.5,-103.79"/>
</g>
<!-- AddCommentComponent  -->
<g id="node7" class="node">
<title>AddCommentComponent </title>
<polygon fill="#fb8072" stroke="black" points="570.16,-214.8 405.84,-214.8 405.84,-178.8 570.16,-178.8 570.16,-214.8"/>
<text text-anchor="middle" x="488" y="-192.6" font-family="Times,serif" font-size="14.00">AddCommentComponent </text>
</g>
<!-- CommentsModule&#45;&gt;AddCommentComponent  -->
<g id="edge6" class="edge">
<title>CommentsModule&#45;&gt;AddCommentComponent </title>
<path fill="none" stroke="black" stroke-dasharray="5,2" d="M433.51,-149.91C433.51,-149.91 433.51,-168.79 433.51,-168.79"/>
<polygon fill="black" stroke="black" points="430.01,-168.79 433.51,-178.79 437.01,-168.79 430.01,-168.79"/>
</g>
<!-- CommentsComponent  -->
<g id="node8" class="node">
<title>CommentsComponent </title>
<polygon fill="#fb8072" stroke="black" points="387.5,-214.8 242.5,-214.8 242.5,-178.8 387.5,-178.8 387.5,-214.8"/>
<text text-anchor="middle" x="315" y="-192.6" font-family="Times,serif" font-size="14.00">CommentsComponent </text>
</g>
<!-- CommentsModule&#45;&gt;CommentsComponent  -->
<g id="edge7" class="edge">
<title>CommentsModule&#45;&gt;CommentsComponent </title>
<path fill="none" stroke="black" stroke-dasharray="5,2" d="M364.32,-149.91C364.32,-149.91 364.32,-168.79 364.32,-168.79"/>
<polygon fill="black" stroke="black" points="360.82,-168.79 364.32,-178.79 367.82,-168.79 360.82,-168.79"/>
</g>
<!-- CommentsRoutingModule -->
<g id="node5" class="node">
<title>CommentsRoutingModule</title>
<polygon fill="#8dd3c7" stroke="black" points="305.84,-84.8 302.84,-88.8 281.84,-88.8 278.84,-84.8 140.16,-84.8 140.16,-48.8 305.84,-48.8 305.84,-84.8"/>
<text text-anchor="middle" x="223" y="-62.6" font-family="Times,serif" font-size="14.00">CommentsRoutingModule</text>
</g>
<!-- CommentsRoutingModule&#45;&gt;CommentsModule -->
<g id="edge4" class="edge">
<title>CommentsRoutingModule&#45;&gt;CommentsModule</title>
<path fill="none" stroke="black" d="M273.96,-84.82C273.96,-102.17 273.96,-125.8 273.96,-125.8 273.96,-125.8 330.83,-125.8 330.83,-125.8"/>
<polygon fill="black" stroke="black" points="330.83,-129.3 340.83,-125.8 330.83,-122.3 330.83,-129.3"/>
</g>
<!-- SharedModule -->
<g id="node6" class="node">
<title>SharedModule</title>
<polygon fill="#8dd3c7" stroke="black" points="122.42,-84.8 119.42,-88.8 98.42,-88.8 95.42,-84.8 23.58,-84.8 23.58,-48.8 122.42,-48.8 122.42,-84.8"/>
<text text-anchor="middle" x="73" y="-62.6" font-family="Times,serif" font-size="14.00">SharedModule</text>
</g>
<!-- SharedModule&#45;&gt;CommentsModule -->
<g id="edge5" class="edge">
<title>SharedModule&#45;&gt;CommentsModule</title>
<path fill="none" stroke="black" d="M73,-85.08C73,-106.12 73,-137.8 73,-137.8 73,-137.8 330.84,-137.8 330.84,-137.8"/>
<polygon fill="black" stroke="black" points="330.84,-141.3 340.84,-137.8 330.84,-134.3 330.84,-141.3"/>
</g>
</g>
</svg>
