<?xml version="1.0" encoding="UTF-8" standalone="no"?>
<!DOCTYPE svg PUBLIC "-//W3C//DTD SVG 1.1//EN"
 "http://www.w3.org/Graphics/SVG/1.1/DTD/svg11.dtd">
<!-- Generated by graphviz version 2.47.3 (20210619.1520)
 -->
<!-- Title: dependencies Pages: 1 -->
<svg width="332pt" height="247pt"
 viewBox="0.00 0.00 332.00 246.80" xmlns="http://www.w3.org/2000/svg" xmlns:xlink="http://www.w3.org/1999/xlink">
<g id="graph0" class="graph" transform="scale(1 1) rotate(0) translate(4 242.8)">
<title>dependencies</title>
<polygon fill="white" stroke="transparent" points="-4,4 -4,-242.8 328,-242.8 328,4 -4,4"/>
<text text-anchor="middle" x="162" y="-8.2" font-family="sans-serif" font-size="14.00">dependencies</text>
<g id="clust1" class="cluster">
<title>cluster_SharedModule</title>
<polygon fill="none" stroke="black" stroke-dasharray="1,5" points="8,-32.8 8,-230.8 316,-230.8 316,-32.8 8,-32.8"/>
</g>
<g id="clust3" class="cluster">
<title>cluster_SharedModule_imports</title>
<polygon fill="none" stroke="black" points="20,-40.8 20,-92.8 304,-92.8 304,-40.8 20,-40.8"/>
</g>
<g id="clust4" class="cluster">
<title>cluster_SharedModule_exports</title>
<polygon fill="none" stroke="black" points="16,-170.8 16,-222.8 308,-222.8 308,-170.8 16,-170.8"/>
</g>
<!-- MatSharedModule -->
<g id="node1" class="node">
<title>MatSharedModule</title>
<polygon fill="#8dd3c7" stroke="black" points="296.47,-84.8 293.47,-88.8 272.47,-88.8 269.47,-84.8 175.53,-84.8 175.53,-48.8 296.47,-48.8 296.47,-84.8"/>
<text text-anchor="middle" x="236" y="-62.6" font-family="Times,serif" font-size="14.00">MatSharedModule</text>
</g>
<!-- SharedModule -->
<g id="node3" class="node">
<title>SharedModule</title>
<polygon fill="#8dd3c7" stroke="black" points="143.42,-149.8 140.42,-153.8 119.42,-153.8 116.42,-149.8 44.58,-149.8 44.58,-113.8 143.42,-113.8 143.42,-149.8"/>
<text text-anchor="middle" x="94" y="-127.6" font-family="Times,serif" font-size="14.00">SharedModule</text>
</g>
<!-- MatSharedModule&#45;&gt;SharedModule -->
<g id="edge1" class="edge">
<title>MatSharedModule&#45;&gt;SharedModule</title>
<path fill="none" stroke="black" d="M256.25,-84.82C256.25,-102.17 256.25,-125.8 256.25,-125.8 256.25,-125.8 153.56,-125.8 153.56,-125.8"/>
<polygon fill="black" stroke="black" points="153.56,-122.3 143.56,-125.8 153.56,-129.3 153.56,-122.3"/>
</g>
<!-- PrimesharedModule -->
<g id="node2" class="node">
<title>PrimesharedModule</title>
<polygon fill="#8dd3c7" stroke="black" points="157.52,-84.8 154.52,-88.8 133.52,-88.8 130.52,-84.8 28.48,-84.8 28.48,-48.8 157.52,-48.8 157.52,-84.8"/>
<text text-anchor="middle" x="93" y="-62.6" font-family="Times,serif" font-size="14.00">PrimesharedModule</text>
</g>
<!-- PrimesharedModule&#45;&gt;SharedModule -->
<g id="edge2" class="edge">
<title>PrimesharedModule&#45;&gt;SharedModule</title>
<path fill="none" stroke="black" d="M94,-84.91C94,-84.91 94,-103.79 94,-103.79"/>
<polygon fill="black" stroke="black" points="90.5,-103.79 94,-113.79 97.5,-103.79 90.5,-103.79"/>
</g>
<!-- MatSharedModule  -->
<g id="node4" class="node">
<title>MatSharedModule </title>
<polygon fill="#fb8072" stroke="black" points="300.47,-214.8 175.53,-214.8 175.53,-178.8 300.47,-178.8 300.47,-214.8"/>
<text text-anchor="middle" x="238" y="-192.6" font-family="Times,serif" font-size="14.00">MatSharedModule </text>
</g>
<!-- SharedModule&#45;&gt;MatSharedModule  -->
<g id="edge3" class="edge">
<title>SharedModule&#45;&gt;MatSharedModule </title>
<path fill="none" stroke="black" stroke-dasharray="5,2" d="M143.27,-137.8C177.13,-137.8 216,-137.8 216,-137.8 216,-137.8 216,-168.78 216,-168.78"/>
<polygon fill="black" stroke="black" points="212.5,-168.78 216,-178.78 219.5,-168.78 212.5,-168.78"/>
</g>
<!-- PrimesharedModule  -->
<g id="node5" class="node">
<title>PrimesharedModule </title>
<polygon fill="#fb8072" stroke="black" points="157.52,-214.8 24.48,-214.8 24.48,-178.8 157.52,-178.8 157.52,-214.8"/>
<text text-anchor="middle" x="91" y="-192.6" font-family="Times,serif" font-size="14.00">PrimesharedModule </text>
</g>
<!-- SharedModule&#45;&gt;PrimesharedModule  -->
<g id="edge4" class="edge">
<title>SharedModule&#45;&gt;PrimesharedModule </title>
<path fill="none" stroke="black" stroke-dasharray="5,2" d="M94,-149.91C94,-149.91 94,-168.79 94,-168.79"/>
<polygon fill="black" stroke="black" points="90.5,-168.79 94,-178.79 97.5,-168.79 90.5,-168.79"/>
</g>
</g>
</svg>
