<?xml version="1.0" encoding="UTF-8" standalone="no"?>
<!DOCTYPE svg PUBLIC "-//W3C//DTD SVG 1.1//EN"
 "http://www.w3.org/Graphics/SVG/1.1/DTD/svg11.dtd">
<!-- Generated by graphviz version 2.47.3 (20210619.1520)
 -->
<!-- Title: dependencies Pages: 1 -->
<svg width="631pt" height="174pt"
 viewBox="0.00 0.00 631.00 173.80" xmlns="http://www.w3.org/2000/svg" xmlns:xlink="http://www.w3.org/1999/xlink">
<g id="graph0" class="graph" transform="scale(1 1) rotate(0) translate(4 169.8)">
<title>dependencies</title>
<polygon fill="white" stroke="transparent" points="-4,4 -4,-169.8 627,-169.8 627,4 -4,4"/>
<text text-anchor="middle" x="311.5" y="-8.2" font-family="sans-serif" font-size="14.00">dependencies</text>
<g id="clust1" class="cluster">
<title>cluster_AccountModule</title>
<polygon fill="none" stroke="black" stroke-dasharray="1,5" points="8,-32.8 8,-157.8 615,-157.8 615,-32.8 8,-32.8"/>
</g>
<g id="clust2" class="cluster">
<title>cluster_AccountModule_declarations</title>
<polygon fill="none" stroke="black" points="192,-40.8 192,-92.8 607,-92.8 607,-40.8 192,-40.8"/>
</g>
<g id="clust6" class="cluster">
<title>cluster_AccountModule_imports</title>
<polygon fill="none" stroke="black" points="16,-40.8 16,-92.8 184,-92.8 184,-40.8 16,-40.8"/>
</g>
<!-- LayoutComponent -->
<g id="node1" class="node">
<title>LayoutComponent</title>
<polygon fill="#ffffb3" stroke="black" points="599.49,-84.8 478.51,-84.8 478.51,-48.8 599.49,-48.8 599.49,-84.8"/>
<text text-anchor="middle" x="539" y="-62.6" font-family="Times,serif" font-size="14.00">LayoutComponent</text>
</g>
<!-- AccountModule -->
<g id="node4" class="node">
<title>AccountModule</title>
<polygon fill="#8dd3c7" stroke="black" points="386.48,-149.8 383.48,-153.8 362.48,-153.8 359.48,-149.8 279.52,-149.8 279.52,-113.8 386.48,-113.8 386.48,-149.8"/>
<text text-anchor="middle" x="333" y="-127.6" font-family="Times,serif" font-size="14.00">AccountModule</text>
</g>
<!-- LayoutComponent&#45;&gt;AccountModule -->
<g id="edge1" class="edge">
<title>LayoutComponent&#45;&gt;AccountModule</title>
<path fill="none" stroke="black" d="M539,-84.91C539,-104.14 539,-131.8 539,-131.8 539,-131.8 396.59,-131.8 396.59,-131.8"/>
<polygon fill="black" stroke="black" points="396.59,-128.3 386.59,-131.8 396.59,-135.3 396.59,-128.3"/>
</g>
<!-- LoginComponent -->
<g id="node2" class="node">
<title>LoginComponent</title>
<polygon fill="#ffffb3" stroke="black" points="460.28,-84.8 345.72,-84.8 345.72,-48.8 460.28,-48.8 460.28,-84.8"/>
<text text-anchor="middle" x="403" y="-62.6" font-family="Times,serif" font-size="14.00">LoginComponent</text>
</g>
<!-- LoginComponent&#45;&gt;AccountModule -->
<g id="edge2" class="edge">
<title>LoginComponent&#45;&gt;AccountModule</title>
<path fill="none" stroke="black" d="M366.05,-84.91C366.05,-84.91 366.05,-103.79 366.05,-103.79"/>
<polygon fill="black" stroke="black" points="362.55,-103.79 366.05,-113.79 369.55,-103.79 362.55,-103.79"/>
</g>
<!-- RegisterComponent -->
<g id="node3" class="node">
<title>RegisterComponent</title>
<polygon fill="#ffffb3" stroke="black" points="327.98,-84.8 200.02,-84.8 200.02,-48.8 327.98,-48.8 327.98,-84.8"/>
<text text-anchor="middle" x="264" y="-62.6" font-family="Times,serif" font-size="14.00">RegisterComponent</text>
</g>
<!-- RegisterComponent&#45;&gt;AccountModule -->
<g id="edge3" class="edge">
<title>RegisterComponent&#45;&gt;AccountModule</title>
<path fill="none" stroke="black" d="M303.75,-84.91C303.75,-84.91 303.75,-103.79 303.75,-103.79"/>
<polygon fill="black" stroke="black" points="300.25,-103.79 303.75,-113.79 307.25,-103.79 300.25,-103.79"/>
</g>
<!-- AccountRoutingModule -->
<g id="node5" class="node">
<title>AccountRoutingModule</title>
<polygon fill="#8dd3c7" stroke="black" points="176.09,-84.8 173.09,-88.8 152.09,-88.8 149.09,-84.8 23.91,-84.8 23.91,-48.8 176.09,-48.8 176.09,-84.8"/>
<text text-anchor="middle" x="100" y="-62.6" font-family="Times,serif" font-size="14.00">AccountRoutingModule</text>
</g>
<!-- AccountRoutingModule&#45;&gt;AccountModule -->
<g id="edge4" class="edge">
<title>AccountRoutingModule&#45;&gt;AccountModule</title>
<path fill="none" stroke="black" d="M100,-84.91C100,-104.14 100,-131.8 100,-131.8 100,-131.8 269.25,-131.8 269.25,-131.8"/>
<polygon fill="black" stroke="black" points="269.25,-135.3 279.25,-131.8 269.25,-128.3 269.25,-135.3"/>
</g>
</g>
</svg>
