<?xml version="1.0" encoding="UTF-8" standalone="no"?>
<!DOCTYPE svg PUBLIC "-//W3C//DTD SVG 1.1//EN"
 "http://www.w3.org/Graphics/SVG/1.1/DTD/svg11.dtd">
<!-- Generated by graphviz version 2.47.3 (20210619.1520)
 -->
<!-- Title: dependencies Pages: 1 -->
<svg width="2062pt" height="247pt"
 viewBox="0.00 0.00 2062.00 246.80" xmlns="http://www.w3.org/2000/svg" xmlns:xlink="http://www.w3.org/1999/xlink">
<g id="graph0" class="graph" transform="scale(1 1) rotate(0) translate(4 242.8)">
<title>dependencies</title>
<polygon fill="white" stroke="transparent" points="-4,4 -4,-242.8 2058,-242.8 2058,4 -4,4"/>
<text text-anchor="middle" x="1027" y="-8.2" font-family="sans-serif" font-size="14.00">dependencies</text>
<g id="clust1" class="cluster">
<title>cluster_AppModule</title>
<polygon fill="none" stroke="black" stroke-dasharray="1,5" points="8,-32.8 8,-230.8 2046,-230.8 2046,-32.8 8,-32.8"/>
</g>
<g id="clust13" class="cluster">
<title>cluster_AppModule_providers</title>
<polygon fill="none" stroke="black" points="1593,-40.8 1593,-92.8 2038,-92.8 2038,-40.8 1593,-40.8"/>
</g>
<g id="clust2" class="cluster">
<title>cluster_AppModule_declarations</title>
<polygon fill="none" stroke="black" points="554,-40.8 554,-92.8 1585,-92.8 1585,-40.8 554,-40.8"/>
</g>
<g id="clust10" class="cluster">
<title>cluster_AppModule_imports</title>
<polygon fill="none" stroke="black" points="16,-40.8 16,-92.8 546,-92.8 546,-40.8 16,-40.8"/>
</g>
<g id="clust12" class="cluster">
<title>cluster_AppModule_bootstrap</title>
<polygon fill="none" stroke="black" points="952,-170.8 952,-222.8 1076,-222.8 1076,-170.8 952,-170.8"/>
</g>
<!-- ApolloTestComponent -->
<g id="node1" class="node">
<title>ApolloTestComponent</title>
<polygon fill="#ffffb3" stroke="black" points="1577.32,-84.8 1432.68,-84.8 1432.68,-48.8 1577.32,-48.8 1577.32,-84.8"/>
<text text-anchor="middle" x="1505" y="-62.6" font-family="Times,serif" font-size="14.00">ApolloTestComponent</text>
</g>
<!-- AppModule -->
<g id="node8" class="node">
<title>AppModule</title>
<polygon fill="#8dd3c7" stroke="black" points="1055.66,-149.8 1052.66,-153.8 1031.66,-153.8 1028.66,-149.8 972.34,-149.8 972.34,-113.8 1055.66,-113.8 1055.66,-149.8"/>
<text text-anchor="middle" x="1014" y="-127.6" font-family="Times,serif" font-size="14.00">AppModule</text>
</g>
<!-- ApolloTestComponent&#45;&gt;AppModule -->
<g id="edge1" class="edge">
<title>ApolloTestComponent&#45;&gt;AppModule</title>
<path fill="none" stroke="black" d="M1505,-85.02C1505,-103.63 1505,-129.8 1505,-129.8 1505,-129.8 1065.86,-129.8 1065.86,-129.8"/>
<polygon fill="black" stroke="black" points="1065.86,-126.3 1055.86,-129.8 1065.86,-133.3 1065.86,-126.3"/>
</g>
<!-- AppComponent -->
<g id="node2" class="node">
<title>AppComponent</title>
<polygon fill="#ffffb3" stroke="black" points="1414.94,-84.8 1309.06,-84.8 1309.06,-48.8 1414.94,-48.8 1414.94,-84.8"/>
<text text-anchor="middle" x="1362" y="-62.6" font-family="Times,serif" font-size="14.00">AppComponent</text>
</g>
<!-- AppComponent&#45;&gt;AppModule -->
<g id="edge2" class="edge">
<title>AppComponent&#45;&gt;AppModule</title>
<path fill="none" stroke="black" d="M1362,-84.83C1362,-101.86 1362,-124.8 1362,-124.8 1362,-124.8 1065.98,-124.8 1065.98,-124.8"/>
<polygon fill="black" stroke="black" points="1065.98,-121.3 1055.98,-124.8 1065.98,-128.3 1065.98,-121.3"/>
</g>
<!-- HomeComponent -->
<g id="node3" class="node">
<title>HomeComponent</title>
<polygon fill="#ffffb3" stroke="black" points="1291.55,-84.8 1176.45,-84.8 1176.45,-48.8 1291.55,-48.8 1291.55,-84.8"/>
<text text-anchor="middle" x="1234" y="-62.6" font-family="Times,serif" font-size="14.00">HomeComponent</text>
</g>
<!-- HomeComponent&#45;&gt;AppModule -->
<g id="edge3" class="edge">
<title>HomeComponent&#45;&gt;AppModule</title>
<path fill="none" stroke="black" d="M1234,-85.04C1234,-100.37 1234,-119.8 1234,-119.8 1234,-119.8 1065.9,-119.8 1065.9,-119.8"/>
<polygon fill="black" stroke="black" points="1065.9,-116.3 1055.9,-119.8 1065.9,-123.3 1065.9,-116.3"/>
</g>
<!-- LeafletTestComponent -->
<g id="node4" class="node">
<title>LeafletTestComponent</title>
<polygon fill="#ffffb3" stroke="black" points="1158.57,-84.8 1013.43,-84.8 1013.43,-48.8 1158.57,-48.8 1158.57,-84.8"/>
<text text-anchor="middle" x="1086" y="-62.6" font-family="Times,serif" font-size="14.00">LeafletTestComponent</text>
</g>
<!-- LeafletTestComponent&#45;&gt;AppModule -->
<g id="edge4" class="edge">
<title>LeafletTestComponent&#45;&gt;AppModule</title>
<path fill="none" stroke="black" d="M1034.65,-84.91C1034.65,-84.91 1034.65,-103.79 1034.65,-103.79"/>
<polygon fill="black" stroke="black" points="1031.15,-103.79 1034.65,-113.79 1038.15,-103.79 1031.15,-103.79"/>
</g>
<!-- MapComponent -->
<g id="node5" class="node">
<title>MapComponent</title>
<polygon fill="#ffffb3" stroke="black" points="995.49,-84.8 888.51,-84.8 888.51,-48.8 995.49,-48.8 995.49,-84.8"/>
<text text-anchor="middle" x="942" y="-62.6" font-family="Times,serif" font-size="14.00">MapComponent</text>
</g>
<!-- MapComponent&#45;&gt;AppModule -->
<g id="edge5" class="edge">
<title>MapComponent&#45;&gt;AppModule</title>
<path fill="none" stroke="black" d="M983.83,-84.91C983.83,-84.91 983.83,-103.79 983.83,-103.79"/>
<polygon fill="black" stroke="black" points="980.33,-103.79 983.83,-113.79 987.33,-103.79 980.33,-103.79"/>
</g>
<!-- MapTestComponent -->
<g id="node6" class="node">
<title>MapTestComponent</title>
<polygon fill="#ffffb3" stroke="black" points="870.59,-84.8 739.41,-84.8 739.41,-48.8 870.59,-48.8 870.59,-84.8"/>
<text text-anchor="middle" x="805" y="-62.6" font-family="Times,serif" font-size="14.00">MapTestComponent</text>
</g>
<!-- MapTestComponent&#45;&gt;AppModule -->
<g id="edge6" class="edge">
<title>MapTestComponent&#45;&gt;AppModule</title>
<path fill="none" stroke="black" d="M805,-85.04C805,-100.37 805,-119.8 805,-119.8 805,-119.8 962.21,-119.8 962.21,-119.8"/>
<polygon fill="black" stroke="black" points="962.21,-123.3 972.21,-119.8 962.21,-116.3 962.21,-123.3"/>
</g>
<!-- OpenmapTestComponent -->
<g id="node7" class="node">
<title>OpenmapTestComponent</title>
<polygon fill="#ffffb3" stroke="black" points="721.86,-84.8 562.14,-84.8 562.14,-48.8 721.86,-48.8 721.86,-84.8"/>
<text text-anchor="middle" x="642" y="-62.6" font-family="Times,serif" font-size="14.00">OpenmapTestComponent</text>
</g>
<!-- OpenmapTestComponent&#45;&gt;AppModule -->
<g id="edge7" class="edge">
<title>OpenmapTestComponent&#45;&gt;AppModule</title>
<path fill="none" stroke="black" d="M642,-84.83C642,-101.86 642,-124.8 642,-124.8 642,-124.8 962.05,-124.8 962.05,-124.8"/>
<polygon fill="black" stroke="black" points="962.05,-128.3 972.05,-124.8 962.05,-121.3 962.05,-128.3"/>
</g>
<!-- AppComponent  -->
<g id="node13" class="node">
<title>AppComponent </title>
<polygon fill="#80b1d3" stroke="black" points="1068.44,-214.8 959.56,-214.8 959.56,-178.8 1068.44,-178.8 1068.44,-214.8"/>
<text text-anchor="middle" x="1014" y="-192.6" font-family="Times,serif" font-size="14.00">AppComponent </text>
</g>
<!-- AppModule&#45;&gt;AppComponent  -->
<g id="edge12" class="edge">
<title>AppModule&#45;&gt;AppComponent </title>
<path fill="none" stroke="black" stroke-dasharray="1,5" d="M1014,-149.91C1014,-149.91 1014,-168.79 1014,-168.79"/>
<polygon fill="black" stroke="black" points="1010.5,-168.79 1014,-178.79 1017.5,-168.79 1010.5,-168.79"/>
</g>
<!-- AppRoutingModule -->
<g id="node9" class="node">
<title>AppRoutingModule</title>
<polygon fill="#8dd3c7" stroke="black" points="538.27,-84.8 535.27,-88.8 514.27,-88.8 511.27,-84.8 409.73,-84.8 409.73,-48.8 538.27,-48.8 538.27,-84.8"/>
<text text-anchor="middle" x="474" y="-62.6" font-family="Times,serif" font-size="14.00">AppRoutingModule</text>
</g>
<!-- AppRoutingModule&#45;&gt;AppModule -->
<g id="edge8" class="edge">
<title>AppRoutingModule&#45;&gt;AppModule</title>
<path fill="none" stroke="black" d="M474,-85.02C474,-103.63 474,-129.8 474,-129.8 474,-129.8 962.08,-129.8 962.08,-129.8"/>
<polygon fill="black" stroke="black" points="962.08,-133.3 972.08,-129.8 962.08,-126.3 962.08,-133.3"/>
</g>
<!-- CommentsModule -->
<g id="node10" class="node">
<title>CommentsModule</title>
<polygon fill="#8dd3c7" stroke="black" points="392.22,-84.8 389.22,-88.8 368.22,-88.8 365.22,-84.8 271.78,-84.8 271.78,-48.8 392.22,-48.8 392.22,-84.8"/>
<text text-anchor="middle" x="332" y="-62.6" font-family="Times,serif" font-size="14.00">CommentsModule</text>
</g>
<!-- CommentsModule&#45;&gt;AppModule -->
<g id="edge9" class="edge">
<title>CommentsModule&#45;&gt;AppModule</title>
<path fill="none" stroke="black" d="M332,-85.02C332,-105.17 332,-134.8 332,-134.8 332,-134.8 962.11,-134.8 962.11,-134.8"/>
<polygon fill="black" stroke="black" points="962.11,-138.3 972.11,-134.8 962.11,-131.3 962.11,-138.3"/>
</g>
<!-- GraphQLModule -->
<g id="node11" class="node">
<title>GraphQLModule</title>
<polygon fill="#8dd3c7" stroke="black" points="253.69,-84.8 250.69,-88.8 229.69,-88.8 226.69,-84.8 140.31,-84.8 140.31,-48.8 253.69,-48.8 253.69,-84.8"/>
<text text-anchor="middle" x="197" y="-62.6" font-family="Times,serif" font-size="14.00">GraphQLModule</text>
</g>
<!-- GraphQLModule&#45;&gt;AppModule -->
<g id="edge10" class="edge">
<title>GraphQLModule&#45;&gt;AppModule</title>
<path fill="none" stroke="black" d="M197,-84.84C197,-106.46 197,-139.8 197,-139.8 197,-139.8 962.08,-139.8 962.08,-139.8"/>
<polygon fill="black" stroke="black" points="962.08,-143.3 972.08,-139.8 962.08,-136.3 962.08,-143.3"/>
</g>
<!-- SharedModule -->
<g id="node12" class="node">
<title>SharedModule</title>
<polygon fill="#8dd3c7" stroke="black" points="122.42,-84.8 119.42,-88.8 98.42,-88.8 95.42,-84.8 23.58,-84.8 23.58,-48.8 122.42,-48.8 122.42,-84.8"/>
<text text-anchor="middle" x="73" y="-62.6" font-family="Times,serif" font-size="14.00">SharedModule</text>
</g>
<!-- SharedModule&#45;&gt;AppModule -->
<g id="edge11" class="edge">
<title>SharedModule&#45;&gt;AppModule</title>
<path fill="none" stroke="black" d="M73,-84.89C73,-107.93 73,-144.8 73,-144.8 73,-144.8 962.05,-144.8 962.05,-144.8"/>
<polygon fill="black" stroke="black" points="962.05,-148.3 972.05,-144.8 962.05,-141.3 962.05,-148.3"/>
</g>
<!-- MarkerService -->
<g id="node14" class="node">
<title>MarkerService</title>
<ellipse fill="#fdb462" stroke="black" cx="1962" cy="-66.8" rx="68.32" ry="18"/>
<text text-anchor="middle" x="1962" y="-62.6" font-family="Times,serif" font-size="14.00">MarkerService</text>
</g>
<!-- MarkerService&#45;&gt;AppModule -->
<g id="edge13" class="edge">
<title>MarkerService&#45;&gt;AppModule</title>
<path fill="none" stroke="black" d="M1962,-84.89C1962,-107.93 1962,-144.8 1962,-144.8 1962,-144.8 1065.96,-144.8 1065.96,-144.8"/>
<polygon fill="black" stroke="black" points="1065.96,-141.3 1055.96,-144.8 1065.96,-148.3 1065.96,-141.3"/>
</g>
<!-- PopupService -->
<g id="node15" class="node">
<title>PopupService</title>
<ellipse fill="#fdb462" stroke="black" cx="1811" cy="-66.8" rx="64.85" ry="18"/>
<text text-anchor="middle" x="1811" y="-62.6" font-family="Times,serif" font-size="14.00">PopupService</text>
</g>
<!-- PopupService&#45;&gt;AppModule -->
<g id="edge14" class="edge">
<title>PopupService&#45;&gt;AppModule</title>
<path fill="none" stroke="black" d="M1811,-84.84C1811,-106.46 1811,-139.8 1811,-139.8 1811,-139.8 1065.73,-139.8 1065.73,-139.8"/>
<polygon fill="black" stroke="black" points="1065.73,-136.3 1055.73,-139.8 1065.73,-143.3 1065.73,-136.3"/>
</g>
<!-- ShapeService -->
<g id="node16" class="node">
<title>ShapeService</title>
<ellipse fill="#fdb462" stroke="black" cx="1665" cy="-66.8" rx="63.68" ry="18"/>
<text text-anchor="middle" x="1665" y="-62.6" font-family="Times,serif" font-size="14.00">ShapeService</text>
</g>
<!-- ShapeService&#45;&gt;AppModule -->
<g id="edge15" class="edge">
<title>ShapeService&#45;&gt;AppModule</title>
<path fill="none" stroke="black" d="M1665,-85.02C1665,-105.17 1665,-134.8 1665,-134.8 1665,-134.8 1065.71,-134.8 1065.71,-134.8"/>
<polygon fill="black" stroke="black" points="1065.71,-131.3 1055.71,-134.8 1065.71,-138.3 1065.71,-131.3"/>
</g>
</g>
</svg>
